<svg width="48" height="48" viewBox="0 0 48 48" fill="none" xmlns="http://www.w3.org/2000/svg">
<path d="M24.0031 16.616C19.9159 16.616 16.6191 19.9128 16.6191 24C16.6191 28.0872 19.9159 31.3839 24.0031 31.3839C28.0903 31.3839 31.3871 28.0872 31.3871 24C31.3871 19.9128 28.0903 16.616 24.0031 16.616ZM24.0031 28.8005C21.3618 28.8005 19.2026 26.6477 19.2026 24C19.2026 21.3523 21.3554 19.1995 24.0031 19.1995C26.6508 19.1995 28.8036 21.3523 28.8036 24C28.8036 26.6477 26.6444 28.8005 24.0031 28.8005V28.8005ZM33.4114 16.314C33.4114 17.2715 32.6402 18.0363 31.6891 18.0363C30.7316 18.0363 29.9668 17.2651 29.9668 16.314C29.9668 15.3629 30.738 14.5917 31.6891 14.5917C32.6402 14.5917 33.4114 15.3629 33.4114 16.314ZM38.3019 18.062C38.1926 15.7549 37.6657 13.7113 35.9755 12.0276C34.2918 10.3438 32.2482 9.81688 29.9411 9.70121C27.5633 9.56625 20.4364 9.56625 18.0587 9.70121C15.758 9.81046 13.7144 10.3374 12.0243 12.0211C10.3341 13.7049 9.81357 15.7485 9.6979 18.0556C9.56294 20.4333 9.56294 27.5602 9.6979 29.938C9.80714 32.2451 10.3341 34.2887 12.0243 35.9724C13.7144 37.6561 15.7516 38.1831 18.0587 38.2988C20.4364 38.4337 27.5633 38.4337 29.9411 38.2988C32.2482 38.1895 34.2918 37.6626 35.9755 35.9724C37.6592 34.2887 38.1862 32.2451 38.3019 29.938C38.4368 27.5602 38.4368 20.4398 38.3019 18.062V18.062ZM35.2301 32.4893C34.7288 33.7489 33.7584 34.7193 32.4924 35.2269C30.5966 35.9788 26.0981 35.8053 24.0031 35.8053C21.9081 35.8053 17.4032 35.9724 15.5138 35.2269C14.2542 34.7257 13.2838 33.7553 12.7762 32.4893C12.0243 30.5935 12.1978 26.095 12.1978 24C12.1978 21.905 12.0307 17.4001 12.7762 15.5107C13.2774 14.2511 14.2478 13.2807 15.5138 12.773C17.4096 12.0211 21.9081 12.1947 24.0031 12.1947C26.0981 12.1947 30.603 12.0276 32.4924 12.773C33.752 13.2743 34.7224 14.2447 35.2301 15.5107C35.9819 17.4065 35.8084 21.905 35.8084 24C35.8084 26.095 35.9819 30.5999 35.2301 32.4893Z" fill="white"/>
</svg>
