<svg width="1280" height="2493" viewBox="0 0 1280 2493" fill="none" xmlns="http://www.w3.org/2000/svg">
<g clip-path="url(#clip0_547_1627)">
<path opacity="0.24" d="M1320 737C1248.79 858.509 1120.09 932.787 983 900.5C939.02 890.142 721.2 892.773 678.5 878C483.4 810.502 449.096 798.784 279.5 916.5C137.851 1014.82 -33 1218.41 51 1279.5C108.728 1321.49 187.599 1259.08 230 1316.5C279.201 1383.13 122.943 1459.68 177.5 1522C325 1690.5 735.208 1474.6 867.5 1722C983 1938 1059.43 1533.8 1115 1622C1178 1722 1137.8 1763.39 1194 1832.5C1278.26 1936.13 1323.61 2206.75 1194 2174.5C983 2122 846.762 2202.83 662 2253.5C381.648 2330.38 265.929 2289.78 -22.5 2253.5" stroke="#7EC384" stroke-width="16" stroke-dasharray="16 16"/>
</g>
<defs>
<clipPath id="clip0_547_1627">
<rect width="1280" height="2493" fill="white"/>
</clipPath>
</defs>
</svg>
