<svg width="48" height="48" viewBox="0 0 48 48" fill="none" xmlns="http://www.w3.org/2000/svg">
<path d="M38.085 16.7775C38.1075 17.0925 38.1075 17.4075 38.1075 17.7225C38.1075 27.33 30.7951 38.4 17.43 38.4C13.3125 38.4 9.48753 37.2075 6.27002 35.1375C6.85504 35.205 7.41748 35.2275 8.02501 35.2275C11.4225 35.2275 14.55 34.08 17.0475 32.1225C13.8525 32.055 11.175 29.9625 10.2525 27.0825C10.7025 27.15 11.1525 27.195 11.625 27.195C12.2775 27.195 12.9301 27.1049 13.5375 26.9475C10.2075 26.2725 7.70996 23.3475 7.70996 19.815V19.725C8.67742 20.265 9.80252 20.6025 10.9949 20.6475C9.03743 19.3424 7.75498 17.115 7.75498 14.595C7.75498 13.245 8.11491 12.0075 8.74495 10.9275C12.3225 15.3375 17.7 18.2174 23.7299 18.5325C23.6175 17.9925 23.5499 17.43 23.5499 16.8675C23.5499 12.8625 26.79 9.60001 30.8174 9.60001C32.9099 9.60001 34.7999 10.4775 36.1275 11.895C37.7699 11.58 39.3449 10.9725 40.74 10.14C40.1999 11.8275 39.0524 13.245 37.545 14.145C39.0075 13.9876 40.425 13.5825 41.7299 13.02C40.7401 14.46 39.5025 15.7424 38.085 16.7775V16.7775Z" fill="white"/>
</svg>
