<svg width="158" height="32" viewBox="0 0 158 32" fill="none" xmlns="http://www.w3.org/2000/svg">
<rect width="48" height="32" rx="16" fill="#3F7857"/>
<g clip-path="url(#clip0_547_1626)">
<path d="M11.7376 16.2237C11.5716 16.3529 11.4374 16.4699 11.3153 16.5919C11.1932 16.7139 11.0762 16.8482 10.9469 17.0144C10.788 17.2187 10.8247 17.5132 11.0291 17.6722C11.1147 17.7387 11.216 17.771 11.3166 17.771C11.4563 17.771 11.5946 17.7088 11.6869 17.5901C11.7917 17.4553 11.8843 17.3488 11.9782 17.2549C12.0721 17.161 12.1787 17.0684 12.3132 16.9637C12.5176 16.8047 12.5544 16.5102 12.3954 16.3059C12.2365 16.1015 11.942 16.0647 11.7376 16.2237Z" fill="white"/>
<path d="M16.9366 23.3902C17.0371 23.3902 17.1384 23.358 17.224 23.2915C17.39 23.1624 17.5243 23.0453 17.6464 22.9231C17.7686 22.801 17.8856 22.6667 18.0148 22.5007C18.1738 22.2964 18.137 22.0019 17.9326 21.8429C17.7283 21.684 17.4338 21.7208 17.2748 21.9251C17.1701 22.0597 17.0775 22.1662 16.9836 22.2602C16.8896 22.3542 16.7831 22.4467 16.6485 22.5514C16.4441 22.7103 16.4073 23.0048 16.5663 23.2092C16.6586 23.328 16.7969 23.3902 16.9366 23.3902V23.3902Z" fill="white"/>
<path d="M33.5192 13.2768C33.1086 13.2768 32.6975 13.3154 32.2975 13.3918C32.0432 13.4403 31.8764 13.6859 31.9249 13.9401C31.9734 14.1944 32.2192 14.3612 32.4732 14.3126C32.8154 14.2473 33.1673 14.2142 33.5191 14.2142C36.5757 14.2142 39.0624 16.7009 39.0624 19.7575C39.0624 22.8141 36.5757 25.3008 33.5191 25.3008C30.4626 25.3008 27.9757 22.8141 27.9757 19.7575C27.9757 17.9663 28.8155 16.3276 30.2439 15.2848L30.7303 16.8251C30.9719 17.5901 31.3485 18.2956 31.8497 18.9221L33.1531 20.5513C33.2456 20.6671 33.3819 20.7273 33.5194 20.7273C33.6221 20.7273 33.7255 20.6936 33.8119 20.6245C34.014 20.4628 34.0468 20.1678 33.8851 19.9656L32.5817 18.3364C32.153 17.8006 31.8309 17.1971 31.6243 16.5428L29.1618 8.74494C29.1602 8.73988 29.1569 8.72938 29.1666 8.71619C29.1763 8.70301 29.1873 8.70301 29.1926 8.70301H31.5151C32.0854 8.70301 32.5493 9.16701 32.5493 9.73726C32.5493 10.3075 32.0854 10.7715 31.5151 10.7715C31.2562 10.7715 31.0463 10.9814 31.0463 11.2403C31.0463 11.4991 31.2562 11.709 31.5151 11.709C32.6023 11.709 33.4868 10.8245 33.4868 9.73726C33.4868 8.65001 32.6023 7.76551 31.5151 7.76551H29.1926C28.8802 7.76551 28.5951 7.91001 28.4104 8.16207C28.2257 8.41407 28.1738 8.72944 28.2679 9.02732L28.6605 10.2706H19.2356L18.6126 8.18657L20.6433 7.78044C21.1181 7.68544 21.4627 7.26507 21.4627 6.78088C21.4627 6.21882 21.0054 5.76151 20.4433 5.76151H16.5344C15.9723 5.76151 15.5151 6.21876 15.5151 6.78088C15.5151 7.28026 15.7366 7.74826 16.1228 8.06482C16.4229 8.31088 16.7932 8.44144 17.1732 8.44144C17.2821 8.44144 17.3919 8.43069 17.501 8.40888L17.6894 8.37119L18.4078 10.7744L14.6796 18.3004C14.6146 18.2916 14.5483 18.2867 14.4809 18.2867C13.6699 18.2867 13.0102 18.9464 13.0102 19.7574C13.0102 20.4046 13.4304 20.9549 14.0122 21.1512V22.2625C14.0122 22.5214 14.2221 22.7313 14.4809 22.7313C14.7398 22.7313 14.9497 22.5214 14.9497 22.2625V21.1512C15.3172 21.0272 15.6201 20.7619 15.7934 20.4199L19.8913 20.9657C19.3384 23.4432 17.1227 25.3008 14.4809 25.3008C11.4242 25.3009 8.9375 22.8141 8.9375 19.7576C8.9375 16.7009 11.4243 14.2143 14.4808 14.2143C14.6884 14.2143 14.8974 14.2258 15.1021 14.2486C15.3592 14.2774 15.5912 14.092 15.6199 13.8347C15.6486 13.5774 15.4632 13.3456 15.2059 13.3169C14.9669 13.2903 14.7229 13.2768 14.4808 13.2768C10.9073 13.2768 8 16.184 8 19.7576C8 23.3311 10.9073 26.2384 14.4808 26.2384C17.2368 26.2384 19.5962 24.509 20.5316 22.0784C20.8927 22.479 21.4154 22.7313 21.9959 22.7313C22.0409 22.7313 22.0855 22.7293 22.1298 22.7263L22.4712 23.7992C22.2244 23.8126 22.0282 24.0164 22.0282 24.2666C22.0282 24.5255 22.2381 24.7354 22.4969 24.7354H24C24.2589 24.7354 24.4688 24.5255 24.4688 24.2666C24.4688 24.0078 24.2589 23.7979 24 23.7979H23.4546L23.0232 22.442C23.5893 22.095 23.9677 21.4707 23.9677 20.7596C23.9677 20.3642 23.8504 19.9959 23.6492 19.6869L29.6281 13.3344L29.9484 14.3487C28.1216 15.5538 27.0383 17.5573 27.0383 19.7575C27.0383 23.3311 29.9456 26.2383 33.5192 26.2383C37.0928 26.2383 40 23.3311 40 19.7576C40 16.184 37.0927 13.2768 33.5192 13.2768ZM17.3171 7.48969C17.1039 7.53232 16.8852 7.47776 16.7171 7.33994C16.5491 7.20213 16.4526 6.99838 16.4526 6.78101C16.4526 6.73588 16.4894 6.69913 16.5345 6.69913H20.4434C20.4885 6.69913 20.5253 6.73588 20.5253 6.78101C20.5253 6.81994 20.4976 6.85369 20.4594 6.86132L17.3171 7.48969ZM20.1554 16.6212C19.6036 15.6222 18.7879 14.7727 17.7703 14.1733L18.8014 12.0916L20.1554 16.6212ZM14.4808 20.2908C14.1868 20.2908 13.9476 20.0516 13.9476 19.7576C13.9476 19.4635 14.1868 19.2243 14.4808 19.2243C14.7748 19.2243 15.0141 19.4635 15.0141 19.7576C15.0141 20.0516 14.7749 20.2908 14.4808 20.2908ZM15.9271 19.4921C15.8722 19.1924 15.7266 18.924 15.5194 18.7171L17.3531 15.0155C19.0094 16.0184 20.0243 17.8037 20.0243 19.7576C20.0243 19.8512 20.0219 19.9443 20.0173 20.0368L15.9271 19.4921ZM21.996 21.7939C21.4257 21.7939 20.9618 21.3299 20.9618 20.7596C20.9618 20.1893 21.4257 19.7253 21.996 19.7253C22.5663 19.7253 23.0302 20.1893 23.0302 20.7596C23.0302 21.3299 22.5663 21.7939 21.996 21.7939ZM22.9666 19.0443C22.6798 18.8814 22.3487 18.7878 21.9959 18.7878C21.9246 18.7878 21.8542 18.7918 21.7849 18.7993L19.5158 11.2082H28.9566L29.3046 12.3103L22.9666 19.0443Z" fill="white"/>
<path d="M36.0219 17.2549C36.1157 17.3487 36.2083 17.4552 36.3131 17.59C36.4056 17.7088 36.5437 17.7709 36.6834 17.7709C36.784 17.7709 36.8854 17.7387 36.9709 17.6721C37.1753 17.5132 37.212 17.2187 37.0531 17.0143C36.9238 16.8481 36.8068 16.7139 36.6847 16.5919C36.5626 16.4698 36.4284 16.3528 36.2624 16.2236C36.0581 16.0647 35.7636 16.1014 35.6046 16.3058C35.4456 16.5101 35.4824 16.8046 35.6867 16.9636C35.8214 17.0684 35.9279 17.1609 36.0219 17.2549V17.2549Z" fill="white"/>
<path d="M31.0165 22.2603C30.9226 22.1663 30.83 22.0598 30.7253 21.9251C30.5663 21.7208 30.2718 21.6841 30.0674 21.843C29.8631 22.002 29.8263 22.2965 29.9853 22.5008C30.1144 22.6668 30.2314 22.8011 30.3536 22.9232C30.4758 23.0454 30.6101 23.1624 30.7761 23.2916C30.8616 23.3581 30.9629 23.3903 31.0635 23.3903C31.2032 23.3903 31.3414 23.3281 31.4339 23.2093C31.5928 23.0049 31.556 22.7104 31.3516 22.5515C31.217 22.4468 31.1105 22.3543 31.0165 22.2603V22.2603Z" fill="white"/>
</g>
<path d="M65.68 5.08C65.3707 4.42933 64.9227 3.928 64.336 3.576C63.7493 3.21333 63.0667 3.032 62.288 3.032C61.5093 3.032 60.8053 3.21333 60.176 3.576C59.5573 3.928 59.0667 4.44 58.704 5.112C58.352 5.77333 58.176 6.54133 58.176 7.416C58.176 8.29067 58.352 9.05867 58.704 9.72C59.0667 10.3813 59.5573 10.8933 60.176 11.256C60.8053 11.608 61.5093 11.784 62.288 11.784C63.376 11.784 64.272 11.4587 64.976 10.808C65.68 10.1573 66.0907 9.27733 66.208 8.168H61.76V6.984H67.76V8.104C67.6747 9.02133 67.3867 9.864 66.896 10.632C66.4053 11.3893 65.76 11.992 64.96 12.44C64.16 12.8773 63.2693 13.096 62.288 13.096C61.2533 13.096 60.3093 12.856 59.456 12.376C58.6027 11.8853 57.9253 11.208 57.424 10.344C56.9333 9.48 56.688 8.504 56.688 7.416C56.688 6.328 56.9333 5.352 57.424 4.488C57.9253 3.61333 58.6027 2.936 59.456 2.456C60.3093 1.96533 61.2533 1.72 62.288 1.72C63.472 1.72 64.5173 2.01333 65.424 2.6C66.3413 3.18667 67.008 4.01333 67.424 5.08H65.68ZM76.3571 13L73.7011 8.44H71.9411V13H70.4851V1.848H74.0851C74.9278 1.848 75.6371 1.992 76.2131 2.28C76.7998 2.568 77.2371 2.95733 77.5251 3.448C77.8131 3.93867 77.9571 4.49867 77.9571 5.128C77.9571 5.896 77.7331 6.57333 77.2851 7.16C76.8478 7.74667 76.1865 8.136 75.3011 8.328L78.1011 13H76.3571ZM71.9411 7.272H74.0851C74.8745 7.272 75.4665 7.08 75.8611 6.696C76.2558 6.30133 76.4531 5.77867 76.4531 5.128C76.4531 4.46667 76.2558 3.95467 75.8611 3.592C75.4771 3.22933 74.8851 3.048 74.0851 3.048H71.9411V7.272ZM82.4755 3.032V6.76H86.5395V7.96H82.4755V11.8H87.0195V13H81.0195V1.832H87.0195V3.032H82.4755ZM91.4786 3.032V6.76H95.5426V7.96H91.4786V11.8H96.0226V13H90.0226V1.832H96.0226V3.032H91.4786ZM107.794 13H106.338L100.482 4.12V13H99.0258V1.832H100.482L106.338 10.696V1.832H107.794V13ZM125.092 1.848L121.86 13H120.228L117.636 4.024L114.948 13L113.332 13.016L110.212 1.848H111.764L114.196 11.304L116.884 1.848H118.516L121.076 11.272L123.524 1.848H125.092ZM134.077 10.52H129.213L128.317 13H126.781L130.813 1.912H132.493L136.509 13H134.973L134.077 10.52ZM133.661 9.336L131.645 3.704L129.629 9.336H133.661ZM146.874 1.848L143.242 8.792V13H141.786V8.792L138.138 1.848H139.754L142.506 7.496L145.258 1.848H146.874ZM152.746 13.112C152.01 13.112 151.349 12.984 150.762 12.728C150.186 12.4613 149.733 12.0987 149.402 11.64C149.071 11.1707 148.901 10.632 148.89 10.024H150.442C150.495 10.5467 150.709 10.9893 151.082 11.352C151.466 11.704 152.021 11.88 152.746 11.88C153.439 11.88 153.983 11.7093 154.378 11.368C154.783 11.016 154.986 10.568 154.986 10.024C154.986 9.59733 154.869 9.25067 154.634 8.984C154.399 8.71733 154.106 8.51467 153.754 8.376C153.402 8.23733 152.927 8.088 152.33 7.928C151.594 7.736 151.002 7.544 150.554 7.352C150.117 7.16 149.738 6.86133 149.418 6.456C149.109 6.04 148.954 5.48533 148.954 4.792C148.954 4.184 149.109 3.64533 149.418 3.176C149.727 2.70667 150.159 2.344 150.714 2.088C151.279 1.832 151.925 1.704 152.65 1.704C153.695 1.704 154.549 1.96533 155.21 2.488C155.882 3.01067 156.261 3.704 156.346 4.568H154.746C154.693 4.14133 154.469 3.768 154.074 3.448C153.679 3.11733 153.157 2.952 152.506 2.952C151.898 2.952 151.402 3.112 151.018 3.432C150.634 3.74133 150.442 4.17867 150.442 4.744C150.442 5.14933 150.554 5.48 150.778 5.736C151.013 5.992 151.295 6.18933 151.626 6.328C151.967 6.456 152.442 6.60533 153.05 6.776C153.786 6.97867 154.378 7.18133 154.826 7.384C155.274 7.576 155.658 7.88 155.978 8.296C156.298 8.70133 156.458 9.256 156.458 9.96C156.458 10.504 156.314 11.016 156.026 11.496C155.738 11.976 155.311 12.3653 154.746 12.664C154.181 12.9627 153.514 13.112 152.746 13.112ZM60.352 15.672V27H56.8V15.672H60.352ZM72.9323 27L70.8043 22.936H70.7883V27H67.2363V15.672H72.5163C73.4336 15.672 74.2176 15.8373 74.8683 16.168C75.5189 16.488 76.0043 16.9307 76.3243 17.496C76.6549 18.0507 76.8203 18.68 76.8203 19.384C76.8203 20.1413 76.6069 20.8133 76.1803 21.4C75.7643 21.9867 75.1616 22.408 74.3723 22.664L76.8363 27H72.9323ZM70.7883 20.568H72.1963C72.5376 20.568 72.7936 20.4933 72.9643 20.344C73.1349 20.184 73.2203 19.9387 73.2203 19.608C73.2203 19.3093 73.1296 19.0747 72.9483 18.904C72.7776 18.7333 72.5269 18.648 72.1963 18.648H70.7883V20.568ZM86.787 18.504V19.896H90.307V22.568H86.787V24.168H90.787V27H83.235V15.672H90.787V18.504H86.787ZM100.958 24.312H104.382V27H97.4056V15.672H100.958V24.312ZM118.043 25.288H114.267L113.707 27H109.979L114.123 15.672H118.219L122.347 27H118.603L118.043 25.288ZM117.179 22.616L116.155 19.464L115.131 22.616H117.179ZM139.298 27H135.746L131.986 21.304V27H128.434V15.672H131.986L135.746 21.464V15.672H139.298V27ZM150.903 15.672C152.087 15.672 153.122 15.912 154.007 16.392C154.903 16.872 155.591 17.5387 156.071 18.392C156.551 19.2453 156.791 20.216 156.791 21.304C156.791 22.3813 156.551 23.352 156.071 24.216C155.591 25.08 154.903 25.7627 154.007 26.264C153.122 26.7547 152.087 27 150.903 27H146.183V15.672H150.903ZM150.583 23.832C151.383 23.832 152.018 23.6133 152.487 23.176C152.956 22.7387 153.191 22.1147 153.191 21.304C153.191 20.4933 152.956 19.8693 152.487 19.432C152.018 18.9947 151.383 18.776 150.583 18.776H149.735V23.832H150.583Z" fill="#3F7857"/>
<defs>
<clipPath id="clip0_547_1626">
<rect width="32" height="32" fill="white" transform="translate(8)"/>
</clipPath>
</defs>
</svg>
